<?xml version="1.0" standalone="no"?><!DOCTYPE svg PUBLIC "-//W3C//DTD SVG 1.1//EN" "http://www.w3.org/Graphics/SVG/1.1/DTD/svg11.dtd"><svg t="1559100798306" class="icon" style="" viewBox="0 0 1024 1024" version="1.1" xmlns="http://www.w3.org/2000/svg" p-id="3679" xmlns:xlink="http://www.w3.org/1999/xlink" width="200" height="200"><defs><style type="text/css"></style></defs><path d="M646.594311 828.718837l27.123568-46.229478s-61.582441 25.204448-164.617883 25.204448c-103.120736 0-163.764941-24.223564-163.764941-24.223564l30.322102 50.451543 10.747074 159.031111c0 17.186789 56.038316 30.620632 125.211945 30.620632 69.216276 0 125.297239-13.391196 125.297239-30.620632l9.76619-163.551706v-0.682354z m26.227979-300.491608c-32.795635 1.961768-49.172129 38.510349-65.633918 76.978052-6.098538 14.07355-26.867686 74.078048-40.42947 66.657449-13.561784-7.377952 17.613261-56.678023 26.398567-86.019242-10.107367 7.420599-47.125068 36.207405-56.678022 9.169131-15.267669 13.391196-48.148599 20.470618-44.438299-14.030902-8.1456 14.713256-26.483862 35.09858-48.57507 26.185331-28.701512-10.875016 16.845612-102.822206 28.147099-98.386906 11.344134 5.160302-2.260297 25.588272-5.800008 33.861814-7.932364 17.869143-16.973554 40.855941-10.875016 45.333888 10.235309 8.273541 38.552997-29.980925 39.192704-30.663279 5.288243-7.036775 20.427971-52.413311 32.539752-47.210362 12.154429 5.714714-30.322102 65.719212-14.500021 77.873641 3.241181 2.558827 16.333847-1.279414 24.266212-10.192661 5.117654-5.117654 3.326475-17.91179 20.42797-58.767732 17.229437-40.898588 32.5824-91.947191 44.310358-88.10895s2.089709 29.980925-2.175003 40.216234c-19.788264 45.973595-54.076548 121.288409-37.955937 115.573696 15.950023-5.757361 24.266211-5.757361 40.216234-24.266212 15.950023-18.50885 14.713256-49.129482 25.545625-48.489775 10.235309 0.59706 8.955895 10.832368 6.397068 17.826496 10.235309-11.514722 49.129482-37.0177 58.128025-12.111782 10.832368 29.341219-55.611845 72.158927-38.979468 69.6001 15.99267-1.91912 42.135355-18.50885 53.650077-33.819166l30.66328-277.206281s-31.302986 25.588272-228.631211 25.588272-225.347382-24.905918-225.347383-24.905918l26.142685 252.897422c14.07355-39.576527 47.253009-120.008996 99.026613-116.853109 23.626505 1.279414 55.569197 47.295656 28.061805 48.57507-11.514722 0.639707-12.794136-22.986798-26.185332-26.185332-10.192662-1.961768-23.626505 5.757361-32.539753 14.713257-17.229437 17.229437-55.611845 85.550123-50.49419 119.454583 6.397068 43.414768 60.004498-14.755904 68.960393-31.98534 6.354421-12.069135 10.832368-48.532423 24.223565-44.694182 14.07355 3.838241-1.236766 41.538295-11.514723 74.078048-11.514722 37.060347-17.229437 75.954521-31.217692 71.476573-14.07355-4.4353 8.913248-52.328016 7.591188-60.644205-13.348549 12.751489-37.657407 43.500062-69.557453 28.104452l15.950023 157.751697s43.457415 33.819166 173.70172 33.819167 175.62084-33.819166 175.62084-33.819167l20.427971-182.657615c-16.58973 16.632377-68.960393 45.333889-72.158927 12.794136-2.51618-26.185332 56.848611-63.885386 41.538295-64.56774l2.558827-2.942651zM739.991504 28.530923l-113.398692 119.411937-20.726501 81.072175c80.219233 5.117654 136.001666 16.461788 136.001666 29.597101 0 17.869143-102.950148 32.28387-229.910624 32.28387s-229.867977-14.627962-229.867977-32.539753c0-17.869143 102.950148-32.5824 229.910624-32.582399 18.039732 0 35.994169 0 53.90596 0.682354l23.925034-97.064846L710.309108 1.663238c2.900004-3.838241 11.941194-0.639707 20.214735 6.397068 8.273541 6.354421 12.751489 14.670609 10.192662 18.50885v1.279413l-0.725001 0.682354z m-163.509058 247.140061s-22.304444 0-26.014744-3.411769a5.970597 5.970597 0 0 1-1.535296-3.838241c0-2.473533 1.663238-3.880888 3.838241-4.691183l1.876473 3.198534c-0.89559 0.255883-1.236766 0.639707-1.407355 0.980883 0 1.748532 13.391196 2.942651 23.669152 2.81471 10.192662-0.127941 22.645621-0.980884 22.730915-2.729415 0-0.511765-0.980884-0.980884-2.601475-1.407355l1.919121-3.070593c2.686769 0.852942 4.989713 2.473533 4.989713 5.160301 0 4.691183-6.013244 5.458831-9.808838 6.013244-4.563242 0.639707-17.570613 0.980884-17.570613 0.980884h-0.085294z" fill="#d81e06" p-id="3680"></path></svg>